PathFileType	4	(X/Y/Z)	pose_F01_0-95.trc
DataRate	CameraRate	NumFrames	NumMarkers	Units	OrigDataRate	OrigDataStartFrame	OrigNumFrames
30	30	9	21	m	30	19	95
Frame#	Time	CHip			RHip			RKnee			RAnkle			RBigToe			RSmallToe			RHeel			LHip			LKnee			LAnkle			LBigToe			LSmallToe			LHeel			Neck			Nose			RShoulder			RElbow			RWrist			LShoulder			LElbow			LWrist			
		X1	Y1	Z1	X2	Y2	Z2	X3	Y3	Z3	X4	Y4	Z4	X5	Y5	Z5	X6	Y6	Z6	X7	Y7	Z7	X8	Y8	Z8	X9	Y9	Z9	X10	Y10	Z10	X11	Y11	Z11	X12	Y12	Z12	X13	Y13	Z13	X14	Y14	Z14	X15	Y15	Z15	X16	Y16	Z16	X17	Y17	Z17	X18	Y18	Z18	X19	Y19	Z19	X20	Y20	Z20	X21	Y21	Z21	
19	0.6333333333333333	-0.2510768451601889	1.8781855435199342	-0.5680361753251205	-0.2689182670669032	1.8760756027860765	-0.5010989726687785																-0.23467332240061428	1.8823549215486104	-0.6359859168603615	-0.23031332464960652	1.7267022692929777	-0.6311023442084503													-0.2595351276634308	2.0552328340264725	-0.588559629015789	-0.24489890263252395	2.1245913980437203	-0.5592482938168694	-0.2822522679381982	2.05055448055929	-0.4969910924249712	-0.2883294805933429	1.9583054787761465	-0.46866643031992133	-0.2884617332711606	1.8751352977256204	-0.42683098246917117	-0.2297915536185133	2.060641074960435	-0.6843686223779856	-0.2248844599339923	1.9693016572929143	-0.7072193402955906	-0.21252808280359956	1.8848242928763181	-0.7082767369150674
20	0.6666666666666666	-0.2531607535402964	1.8763488292777506	-0.565569352767538	-0.26902387871085426	1.8743238332727754	-0.5007136717310163																-0.23685646832706858	1.8807460629789468	-0.6335000592184337	-0.23031332464960652	1.7267022692929777	-0.6311023442084503													-0.2585997125550901	2.0551079255321887	-0.5855924671048616	-0.24491362462967886	2.1233165599130457	-0.5587149068981652	-0.2822176489852446	2.050638899001528	-0.4969546654105248	-0.28814876223347	1.958559969777063	-0.4682903812555176	-0.2874829699772712	1.87302341899837	-0.42326378751861715	-0.22981386551316416	2.059679766872007	-0.6844137528107321	-0.22645246326181287	1.9690692141949273	-0.7022107705879003	-0.2138029796612612	1.8864757576624445	-0.7028007206549955
21	0.7	-0.25141436797491096	1.8762635758479835	-0.5677471288767664	-0.2692464250749843	1.8740080522291438	-0.5008068324920443																-0.23499397633989463	1.8805307478745539	-0.6357117704789078	-0.23031332464960652	1.7267022692929777	-0.6311023442084503													-0.2594940146004458	2.0552264009200614	-0.5885351357601379	-0.2449001919516697	2.1246115185744934	-0.5592643087160271	-0.2822214453031915	2.050610361915124	-0.4969920506379186	-0.2851789565561302	1.9586499167001787	-0.46731671602211117	-0.28634264101424867	1.873069726879423	-0.4284781122691462	-0.22980380255156965	2.0596576135398856	-0.6844393178436037	-0.22849130525225414	1.9679624796966926	-0.6996049678979401	-0.21282501641476956	1.8831537092322423	-0.6997579061050393
22	0.7333333333333333	-0.25100204144949506	1.8824658761169657	-0.568335889397136	-0.26886300074729474	1.8801394077960079	-0.5014074176447939																-0.23474141050189448	1.884763869677975	-0.6361386090922324	-0.23031332464960652	1.7267022692929777	-0.6311023442084503													-0.2585871095359471	2.0550265739424356	-0.5855646281733818	-0.24484166987722092	2.1260317726812783	-0.5598102867922249	-0.28221135465228137	2.0518818055038346	-0.49744987309732763	-0.28738840369817853	1.9615170766755265	-0.48272998058720773	-0.2863830379802877	1.8808541934571428	-0.42111388024104784	-0.22891046473018187	2.060597319608091	-0.6813499833716141	-0.22659384252886916	1.9713365995739465	-0.7027556651453005	-0.21425769331456443	1.8874601028740583	-0.703169934907255
23	0.7666666666666667	-0.25079183948079026	1.8834074176011202	-0.5684509302112484	-0.2686503468632554	1.8814558403731658	-0.5015874685513416																-0.23437518120309825	1.8876324090062733	-0.6363194750640923	-0.23031332464960652	1.7267022692929777	-0.6311023442084503													-0.25856811350971415	2.0549952211769273	-0.5855891287903916	-0.24382635202764102	2.1270751821183573	-0.5567538176639456	-0.28127194501823205	2.0516961008801853	-0.4943769050985319	-1.6639497801984173	1.87785073295737	1.0005581282443503	-0.2773315387242324	1.9264476894366962	-0.4124989646694151	-0.2288634591093125	2.060759390982077	-0.681454187081786	-0.22643519493939757	1.9715025586998072	-0.702519767606536	-0.21492582888828232	1.8884398072876714	-0.7065558256374287
24	0.8	-0.24799479574704683	1.881264066379199	-0.56732528777815	-0.2677238998471143	1.879564451888892	-0.49807311328355264																-0.23255818024879213	1.8840086574884232	-0.6383539690492326	-0.23031332464960652	1.7267022692929777	-0.6311023442084503													-0.2565263871609434	2.056158492369921	-0.5876140298915384	-0.24384379153174743	2.127138232317222	-0.5567692229891157	-0.28213770195256677	2.0529527310009605	-0.497365944713388	-1.7031241091229914	1.8809467459229825	1.0762747312390528	-0.2682800394681771	1.9720411854162496	-0.40388404909778236	-0.22969516462240333	2.0609161608386355	-0.6843484867740884	-0.22651065624641714	1.9736555537654223	-0.703164506345651	-0.21494962650329735	1.8883995093382984	-0.7065666000902258
25	0.8333333333333334	-0.24786645545496133	1.8810051482790746	-0.5673365071673526	-0.26471582448467257	1.879146836710471	-0.49704391912528423																-0.22935591733281882	1.884564438778142	-0.6376840582952399	-0.23031332464960652	1.7267022692929777	-0.6311023442084503													-0.2565236044765324	2.055956884010582	-0.5875556262579671	-0.2438485667536825	2.1283955796692946	-0.5573233291547506	-0.27907261852489346	2.05134569131982	-0.49528598561695175	-0.2837734051336788	1.9679861081708967	-0.4321684020248196	-0.25922854021212177	2.017634681395803	-0.3952691335261496	-0.22965496920495237	2.063289022023485	-0.6846484599620581	-0.2231770735964886	1.9727112613988114	-0.7105837914049007	-0.21237922051698513	1.886615793950133	-0.7054617666649284
26	0.8666666666666667	-0.24753822125751795	1.884164302939209	-0.5674876923982135	-0.2633703932490743	1.8819754593492726	-0.49414077451900035																-0.23126680620669363	1.8865906438695699	-0.6355789836670659	-0.23031332464960652	1.7267022692929777	-0.6311023442084503													-0.25645160580108595	2.05586339561781	-0.5876398234162222	-0.24483455506854673	2.1285227975234693	-0.5602512302471779	-0.2771224285417383	2.0517320879291163	-0.49798418159737173	-0.2747827795713577	1.9917587084881656	-0.3882715516580169	-0.25864421654965153	2.060573697695071	-0.38056301384883706	-0.22972426946040234	2.063262372217808	-0.6846913448996822	-0.2242806170479419	1.9761726977613958	-0.7057152287140231	-0.21288701073938623	1.8899744240536651	-0.7089854413157668
27	0.9	-0.2470879107375854	1.8839717595422023	-0.5645523397009201	-0.26299444732702776	1.8800600087110535	-0.49092284957327026																-0.2286461378097317	1.8879097759561934	-0.6348483549639203	-0.23031332464960652	1.7267022692929777	-0.6311023442084503													-0.25538092488777697	2.057335089248613	-0.5932453523612194	-0.246778297701324	2.129578568321638	-0.558059163217888	-0.2770334528429951	2.054017552497977	-0.4985634014587793	-0.2705635651050311	2.046988677129248	-0.3821494262524275	-0.24895136890719496	2.1145247908146563	-0.3828929216229982	-0.23071514038243496	2.0622012638403415	-0.6878497771769481	-1.3147033126554681	1.9049493941781777	0.40100870358566054	-0.3611101382917823	1.965616273927035	-1.2537835309259358
